<svg width="128" height="132" viewBox="0 0 128 132" fill="none" xmlns="http://www.w3.org/2000/svg">
<rect x="12.5" y="16.5" width="115" height="115" fill="black" stroke="black"/>
<rect x="0.5" y="0.5" width="115" height="115" fill="white" stroke="black"/>
<path d="M36.9648 68.7063L37.3007 69.0767L36.9303 69.4126L36.5944 69.0422L36.9648 68.7063ZM37.3351 68.3704L37.6711 68.7408L37.6711 68.7408L37.3351 68.3704ZM36.293 67.9656L35.9226 68.3015L35.5867 67.9311L35.9571 67.5952L36.293 67.9656ZM36.6633 67.6297L36.9992 68L36.6633 67.6297ZM56.9601 49.221L57.296 48.8506L57.7044 49.221L57.296 49.5913L56.9601 49.221ZM56.7545 49.0345L56.4186 49.4048L56.0482 49.0689L56.3841 48.6986L56.7545 49.0345ZM57.4263 48.2938L57.056 47.9579L57.3919 47.5875L57.7622 47.9234L57.4263 48.2938ZM57.7044 48.5459L58.0403 48.9163L57.7044 49.221L57.3685 48.9163L57.7044 48.5459ZM57.9824 48.2938L57.6465 47.9234L58.0169 47.5875L58.3528 47.9579L57.9824 48.2938ZM58.6542 49.0345L59.0246 48.6986L59.3605 49.0689L58.9901 49.4048L58.6542 49.0345ZM58.4486 49.221L58.1127 49.5913L57.7044 49.221L58.1127 48.8506L58.4486 49.221ZM78.7454 67.6297L79.0813 67.2593L79.0813 67.2593L78.7454 67.6297ZM79.1158 67.9656L79.4517 67.5952L79.822 67.9311L79.4861 68.3015L79.1158 67.9656ZM78.4439 68.7063L78.8143 69.0422L78.4784 69.4126L78.108 69.0767L78.4439 68.7063ZM78.0736 68.3704L77.7377 68.7408L77.7377 68.7408L78.0736 68.3704ZM57.7044 49.896L57.3685 49.5256L57.7044 49.221L58.0403 49.5256L57.7044 49.896ZM36.6289 68.3359L36.9992 68L37.6711 68.7408L37.3007 69.0767L36.6289 68.3359ZM36.6633 67.6297L37.3351 68.3704L36.5944 69.0422L35.9226 68.3015L36.6633 67.6297ZM36.9992 68L36.6289 68.3359L35.9571 67.5952L36.3274 67.2593L36.9992 68ZM57.296 49.5913L36.9992 68L36.3274 67.2593L56.6242 48.8506L57.296 49.5913ZM56.6242 49.5913L56.4186 49.4048L57.0904 48.6641L57.296 48.8506L56.6242 49.5913ZM56.3841 48.6986L57.056 47.9579L57.7967 48.6297L57.1249 49.3704L56.3841 48.6986ZM57.7622 47.9234L58.0403 48.1756L57.3685 48.9163L57.0904 48.6641L57.7622 47.9234ZM58.3183 48.6641L58.0403 48.9163L57.3685 48.1756L57.6465 47.9234L58.3183 48.6641ZM58.2839 49.3704L57.612 48.6297L58.3528 47.9579L59.0246 48.6986L58.2839 49.3704ZM58.1127 48.8506L58.3183 48.6641L58.9901 49.4048L58.7845 49.5913L58.1127 48.8506ZM58.7845 48.8506L79.0813 67.2593L78.4095 68L58.1127 49.5913L58.7845 48.8506ZM79.0813 67.2593L79.4517 67.5952L78.7799 68.3359L78.4095 68L79.0813 67.2593ZM79.4861 68.3015L78.8143 69.0422L78.0736 68.3704L78.7454 67.6297L79.4861 68.3015ZM78.108 69.0767L77.7377 68.7408L78.4095 68L78.7799 68.3359L78.108 69.0767ZM77.7377 68.7408L57.3685 50.2663L58.0403 49.5256L78.4095 68L77.7377 68.7408ZM36.9992 68L57.3685 49.5256L58.0403 50.2663L37.6711 68.7408L36.9992 68Z" fill="black"/>
</svg>
